<svg xmlns="http://www.w3.org/2000/svg" xmlns:xlink="http://www.w3.org/1999/xlink" width="259.998" height="57.818" viewBox="0 0 259.998 57.818"><defs><clipPath id="a"><rect width="58.641" height="57.419" fill="rgba(0,0,0,0)"/></clipPath></defs><g transform="translate(0)"><g transform="translate(65.042 24.776)"><path d="M80.807,53.275H74.173V25.824H64.4V53.275H57.79V20.29H80.807Z" transform="translate(-57.79 -20.278)" fill="#51cf3a"/><path d="M87.634,41.671V53.278H81V20.292H92.191a10.262,10.262,0,0,1,7.77,3.03,11,11,0,0,1,2.9,7.892A10.238,10.238,0,0,1,100,38.874a10.861,10.861,0,0,1-7.941,2.81Zm0-5.546h4.557A3.665,3.665,0,0,0,95.123,34.9a5.5,5.5,0,0,0,1.038-3.665,6.536,6.536,0,0,0-1.063-3.97,3.384,3.384,0,0,0-2.834-1.49h-4.63Z" transform="translate(-52.645 -20.28)" fill="#51cf3a"/><path d="M118.644,20.28h6.621V53.265h-6.621V31.422l-9.676,21.856H102.31V20.292h6.658V42.16Z" transform="translate(-47.921 -20.28)" fill="#51cf3a"/><path d="M143.84,25.824H132.063v6.328H136A11,11,0,0,1,143.925,35a10.006,10.006,0,0,1,2.981,7.574,10.433,10.433,0,0,1-2.883,7.672,10.567,10.567,0,0,1-7.648,3.03h-11V20.29H143.8ZM132.063,37.662V47.741h4.019a3.665,3.665,0,0,0,3.054-1.454,6.035,6.035,0,0,0,1.124-3.751,5.351,5.351,0,0,0-1.1-3.506,3.665,3.665,0,0,0-3.03-1.368Z" transform="translate(-42.806 -20.278)" fill="#51cf3a"/><path d="M152.787,32.148h3.922a11,11,0,0,1,7.941,2.847,10.054,10.054,0,0,1,2.956,7.6,10.14,10.14,0,0,1-10.531,10.7h-11V20.31h6.658Zm0,5.534V47.761h4.019a3.665,3.665,0,0,0,3.054-1.454,6.023,6.023,0,0,0,1.112-3.751,5.412,5.412,0,0,0-1.087-3.506,3.751,3.751,0,0,0-3.042-1.368ZM176,53.3h-6.683V20.31h6.634Z" transform="translate(-38.217 -20.273)" fill="#51cf3a"/><path d="M198.481,20.28V53.265h-6.646V25.826h-6.108l-.452,11.692a39.314,39.314,0,0,1-1.3,9.175A9.834,9.834,0,0,1,181,51.7a8.307,8.307,0,0,1-5.314,1.613H174.06V47.743h.77a3.665,3.665,0,0,0,2.981-2.737,31.9,31.9,0,0,0,1.136-8.784l.428-15.882Z" transform="translate(-32.015 -20.28)" fill="#51cf3a"/><path d="M214.556,20.28h6.609V53.265h-6.634V31.422l-9.676,21.856H198.21V20.292h6.646V42.16Z" transform="translate(-26.661 -20.28)" fill="#51cf3a"/></g><g transform="translate(65.653 0.209)"><path d="M60.379.4l6.108,17.617L72.523.4H74.6V20.423H73.036V11.749l.134-8.735L67.062,20.423H65.84L59.732,3.1l.134,8.552v8.735H58.29V.4Z" transform="translate(-58.29 -0.121)" fill="#fff"/><path d="M85.136,14.828H77.6l-1.71,5.6H74.3L80.677.4h1.454l6.377,20.023H86.871ZM78.087,13.35h6.6l-3.3-10.739Z" transform="translate(-54.741 -0.121)" fill="#fff"/><path d="M92.219,11.041H89.984v9.383H88.42V.4h1.564V9.575h2.15L98.511.4h1.979l-6.866,9.773,7.33,10.189H99.049Z" transform="translate(-51.611 -0.121)" fill="#fff"/><path d="M112.929,14.231a7.33,7.33,0,0,1-1.808,4.887,6.011,6.011,0,0,1-4.41,1.613,5.461,5.461,0,0,1-4.581-2.187,9.578,9.578,0,0,1-1.686-5.962V8.245a9.224,9.224,0,0,1,1.71-5.925A5.656,5.656,0,0,1,106.832.182a5.742,5.742,0,0,1,4.337,1.6,7.7,7.7,0,0,1,1.759,4.887H111.34a6.548,6.548,0,0,0-1.222-3.885,4.74,4.74,0,0,0-6.756.525A8.075,8.075,0,0,0,102.141,8.2v4.349a8.674,8.674,0,0,0,1.222,4.972,3.983,3.983,0,0,0,3.457,1.771,4.313,4.313,0,0,0,3.372-1.222,6.56,6.56,0,0,0,1.222-3.885Z" transform="translate(-48.949 -0.171)" fill="#fff"/><path d="M124.83.4h1.564V20.423H124.83V3.32l-9.334,17.1H113.92V.4H115.5V17.43Z" transform="translate(-45.958 -0.121)" fill="#fff"/><path d="M130.133.4l6.108,17.617L142.35.4h2.077V20.423h-1.576V11.749L143,3.014l-6.108,17.409h-1.222L129.559,3.1l.134,8.552v8.735H128.13V.4Z" transform="translate(-42.807 -0.121)" fill="#fff"/><path d="M156.262.4h1.564V20.423h-1.564V3.32l-9.334,17.1H145.34V.4h1.588V17.43Z" transform="translate(-38.992 -0.121)" fill="#fff"/><path d="M168.772,5.678a3.909,3.909,0,0,0-1.136-2.969,4.386,4.386,0,0,0-3.14-1.063,4,4,0,0,0-2.9,1.124A3.9,3.9,0,0,0,160.379,5.7h-1.564a5.6,5.6,0,0,1,.733-2.859,5.1,5.1,0,0,1,2.1-1.967,6.719,6.719,0,0,1,7.159.757,5.375,5.375,0,0,1,1.539,4.093,4.741,4.741,0,0,1-.782,2.675,4.96,4.96,0,0,1-2.223,1.808,4.447,4.447,0,0,1,2.443,1.747,5.362,5.362,0,0,1,.819,3.066,5.437,5.437,0,0,1-1.649,4.154,6.194,6.194,0,0,1-4.447,1.552,6.475,6.475,0,0,1-3.018-.721,5.131,5.131,0,0,1-2.113-2.028,6.108,6.108,0,0,1-.757-3.079H160.2a4.263,4.263,0,0,0,1.222,3.152,4.129,4.129,0,0,0,3.091,1.222,4.63,4.63,0,0,0,3.311-1.136,4.032,4.032,0,0,0,1.222-3.091,3.848,3.848,0,0,0-1.148-3.115,5.082,5.082,0,0,0-3.335-.977h-1.991V9.526h1.93Q168.772,9.526,168.772,5.678Z" transform="translate(-36.049 -0.17)" fill="#fff"/><path d="M180.885,14.828h-7.5l-1.71,5.6H170L176.414.4h1.466l6.377,20.023H182.62Zm-7.049-1.478h6.6l-3.3-10.739Z" transform="translate(-33.526 -0.121)" fill="#fff"/><path d="M194.35,1.89h-5.693V20.423h-1.576V1.89H181.4V.4h12.95Z" transform="translate(-30.998 -0.121)" fill="#fff"/><path d="M206.855,12.629a9.346,9.346,0,0,1-1.7,6,6.426,6.426,0,0,1-9.529,0,9.272,9.272,0,0,1-1.735-5.95V8.317a9.37,9.37,0,0,1,1.71-6,6.389,6.389,0,0,1,9.541,0,9.493,9.493,0,0,1,1.71,6.035Zm-1.576-4.337a8.026,8.026,0,0,0-1.222-4.887,4.312,4.312,0,0,0-3.665-1.649A4.361,4.361,0,0,0,196.8,3.369a7.807,7.807,0,0,0-1.319,4.887v4.484a7.954,7.954,0,0,0,1.307,4.96,4.362,4.362,0,0,0,3.665,1.649,4.276,4.276,0,0,0,3.665-1.649,8.173,8.173,0,0,0,1.222-4.96Z" transform="translate(-28.233 -0.17)" fill="#fff"/><path d="M209.494,12.276v8.149H207.93V.4h5.815A5.5,5.5,0,0,1,217.923,2a6.035,6.035,0,0,1,1.527,4.386,6.035,6.035,0,0,1-1.478,4.374,5.632,5.632,0,0,1-4.251,1.515Zm0-1.466h4.251a4,4,0,0,0,3.066-1.124,4.618,4.618,0,0,0,1.075-3.25,4.728,4.728,0,0,0-1.1-3.311,3.861,3.861,0,0,0-3.03-1.222h-4.264Z" transform="translate(-25.117 -0.122)" fill="#fff"/></g><g clip-path="url(#a)"><path d="M4.55,30.542V0H63.191V17.1L54.028,7.941,30.816,31.153,16.767,17.1Z" transform="translate(-4.55)" fill="#fff"/><path d="M64.042,20.663l2.566,2.566m-2.566-2.566L54.879,11.5,31.667,34.712,17.618,20.663,5.4,32.879m0,0L.71,37.583" transform="translate(-5.401 2.549)" fill="rgba(0,0,0,0)" stroke="#51cf3a" stroke-miterlimit="10" stroke-width="2"/><path d="M63.191,25.663v28.1H4.55V39.1L16.767,25.663,30.816,39.712,54.028,16.5Z" transform="translate(-4.55 3.658)" fill="#51cf3a"/></g></g></svg>